<svg width="18" height="30" viewBox="0 0 18 30" fill="none" xmlns="http://www.w3.org/2000/svg">
    <g id="AUDIOTECA ICON">
        <path id="Vector"
            d="M16.6843 13.9359L10.3157 17.6367L3.94713 21.3375C2.19285 22.3547 0 21.0819 0 19.0441V22.2115C0 24.2494 2.19285 25.5239 3.94713 24.505L10.3157 20.8042L16.6843 17.1033C18.1118 16.2736 18.3776 14.4334 17.4818 13.2271C17.277 13.5031 17.0111 13.7467 16.6843 13.9359Z"
            fill="#ea580c" />
        <path id="Vector_2"
            d="M16.6843 12.3442L10.3157 16.045L3.94713 19.7458C2.19285 20.7647 0 19.4902 0 17.4524V2.65091C0 0.613087 2.19285 -0.661406 3.94713 0.357507L10.3157 4.05831L16.6843 7.75911C18.4386 8.77802 18.4386 11.3253 16.6843 12.3442Z"
            fill="#ea580c" />
        <path id="Vector_3"
            d="M16.6843 19.0731L10.3157 22.7739L3.94713 26.4747C2.19285 27.4919 0 26.2191 0 24.1813V27.3488C0 29.3866 2.19285 30.6611 3.94713 29.6422L10.3157 25.9414L16.6843 22.2406C18.1118 21.4108 18.3776 19.5706 17.4818 18.3643C17.277 18.6403 17.0111 18.8839 16.6843 19.0731Z"
            fill="#ea580c" />
    </g>
</svg>