<svg width="22" height="23" viewBox="0 0 22 23" fill="none" xmlns="http://www.w3.org/2000/svg">
<g id="Property 1=Search">
<path id="Vector" d="M9.53353 2.29175C5.49213 2.29175 2.2002 5.72084 2.2002 9.93064C2.2002 14.1404 5.49213 17.5695 9.53353 17.5695C11.291 17.5695 12.9049 16.9194 14.1699 15.8403L18.5484 20.4013C18.6159 20.4746 18.6969 20.5331 18.7864 20.5735C18.876 20.6138 18.9724 20.6351 19.07 20.6361C19.1675 20.6371 19.2643 20.6179 19.3546 20.5795C19.445 20.5411 19.527 20.4843 19.596 20.4124C19.665 20.3405 19.7195 20.255 19.7564 20.1609C19.7933 20.0669 19.8118 19.966 19.8108 19.8644C19.8098 19.7628 19.7893 19.6624 19.7506 19.5691C19.7119 19.4758 19.6557 19.3915 19.5854 19.3211L15.2068 14.7601C16.2428 13.4425 16.8669 11.7613 16.8669 9.93064C16.8669 5.72084 13.5749 2.29175 9.53353 2.29175ZM9.53353 3.81953C12.7823 3.81953 15.4002 6.54652 15.4002 9.93064C15.4002 13.3148 12.7823 16.0417 9.53353 16.0417C6.28477 16.0417 3.66686 13.3148 3.66686 9.93064C3.66686 6.54652 6.28477 3.81953 9.53353 3.81953Z" fill="white"/>
</g>
</svg>
