<svg width="32" height="23" viewBox="0 0 32 23" fill="none" xmlns="http://www.w3.org/2000/svg">
    <g id="CONTACTO ICONO">
        <path id="Vector"
            d="M29.679 7.57593H24.5174V8.6697H29.679C30.3584 8.6697 30.9113 9.22553 30.9113 9.90864V20.8881C29.3279 19.9733 25.6162 18.2829 19.8078 18.2829H15.9774C15.298 18.2829 14.7451 17.7271 14.7451 17.044V15.5087C14.3762 15.5197 14.0133 15.5366 13.6572 15.5585V17.044C13.6572 18.3307 14.6986 19.3767 15.9774 19.3767H19.8078C27.2015 19.3767 31.0863 22.2941 31.1239 22.3229L32.0002 23.0011V9.90964C32.0002 8.62296 30.9587 7.57692 29.68 7.57692L29.679 7.57593Z"
            fill="#ea580c" />
        <path id="Vector_2"
            d="M21.0053 0H2.41118C1.079 0 0 1.08482 0 2.42419V18.79C0 18.79 5.36135 14.5292 15.8071 14.5292H21.0053C22.3365 14.5292 23.4165 13.4444 23.4165 12.1051V2.42419C23.4165 1.08582 22.3375 0 21.0053 0ZM6.37409 9.27517C5.60761 9.27517 4.98554 8.64973 4.98554 7.87912C4.98554 7.10851 5.60761 6.48307 6.37409 6.48307C7.14056 6.48307 7.76264 7.10851 7.76264 7.87912C7.76264 8.64973 7.14056 9.27517 6.37409 9.27517ZM11.7078 9.27517C10.9413 9.27517 10.3192 8.64973 10.3192 7.87912C10.3192 7.10851 10.9413 6.48307 11.7078 6.48307C12.4742 6.48307 13.0963 7.10851 13.0963 7.87912C13.0963 8.64973 12.4742 9.27517 11.7078 9.27517ZM17.1789 9.27517C16.4124 9.27517 15.7903 8.64973 15.7903 7.87912C15.7903 7.10851 16.4124 6.48307 17.1789 6.48307C17.9454 6.48307 18.5674 7.10851 18.5674 7.87912C18.5674 8.64973 17.9454 9.27517 17.1789 9.27517Z"
            fill="#ea580c" />
    </g>
</svg>