<svg xmlns="http://www.w3.org/2000/svg" width="9" height="18" viewBox="0 0 9 18" fill="none">
    <path
        d="M1.84853 9.06703V17.7684C1.84853 17.8903 1.94647 18 2.08113 18H5.32524C5.44766 18 5.55784 17.9025 5.55784 17.7684V8.92078H7.90829C8.03071 8.92078 8.12864 8.82329 8.12864 8.71361L8.36124 6.04468C8.36124 5.91063 8.2633 5.80095 8.12864 5.80095H5.5456V3.91198C5.5456 3.47326 5.91285 3.10765 6.35356 3.10765H8.16537C8.28779 3.10765 8.39797 3.01016 8.39797 2.8761V0.23155C8.39797 0.109682 8.30003 0 8.16537 0H5.10489C3.30532 0 1.84853 1.45024 1.84853 3.24171V5.81313H0.232597C0.110177 5.81313 0 5.91063 0 6.04468V8.70142C0 8.82329 0.0979355 8.93297 0.232597 8.93297H1.86077V9.07921L1.84853 9.06703Z"
        fill="white" />
</svg>