<svg width="35" height="25" viewBox="0 0 35 25" fill="none" xmlns="http://www.w3.org/2000/svg">
    <g id="ALTAVOZ ICON">
        <path id="Vector"
            d="M10.979 18.0227C8.7966 17.4176 6.26637 17.0274 3.3584 17.0066L6.39583 22.5007C7.24793 24.0423 8.88934 24.9997 10.6776 24.9997H12.2379C12.5576 24.9997 12.8571 24.8463 13.0388 24.5887C13.2204 24.3311 13.2629 24.0025 13.1508 23.709L10.979 18.0217V18.0227Z"
            fill="#9CA3AF" />
        <path id="Vector_2"
            d="M25.7331 0.17583C25.2404 -0.0826826 24.6463 -0.0542746 24.1816 0.248744C22.4503 1.37938 17.8468 4.16716 12.4946 5.63017C7.53368 6.98523 4.48369 7.05815 3.10699 6.97955C2.1235 6.92273 1.18348 7.43503 0.711052 8.28158C0.238628 9.12625 0 10.1679 0 11.3781C0 12.5882 0.238628 13.6299 0.710086 14.4745C1.11488 15.1989 1.85975 15.679 2.68094 15.7661C3.8277 15.7557 5.07881 15.7993 6.39561 15.9309C7.88824 16.0796 9.31517 16.3258 10.6754 16.6667C11.2725 16.8049 11.8821 16.9593 12.4937 17.1269C17.8449 18.589 22.4493 21.3777 24.1806 22.5083C24.6453 22.8113 25.2395 22.8397 25.7322 22.5812C26.2249 22.3227 26.5311 21.8218 26.5311 21.2735V1.48355C26.5311 0.935271 26.2249 0.434343 25.7322 0.17583H25.7331ZM4.81603 9.99932C4.41316 9.99932 4.08662 9.67926 4.08662 9.28439C4.08662 8.88952 4.41316 8.56945 4.81603 8.56945C5.21889 8.56945 5.54543 8.88952 5.54543 9.28439C5.54543 9.67926 5.21889 9.99932 4.81603 9.99932ZM4.81603 10.6129C4.0673 10.6129 3.46155 10.0183 3.46155 9.28533C3.46155 8.55241 4.06826 7.95773 4.81603 7.95773C5.56379 7.95773 6.1705 8.55241 6.1705 9.28533C6.1705 10.0183 5.56379 10.6129 4.81603 10.6129Z"
            fill="#9CA3AF" />
        <path id="Vector_3"
            d="M29.2297 12.9529H34.0264C34.5635 12.9529 35.0012 12.5239 35.0012 11.9974C35.0012 11.471 34.5635 11.042 34.0264 11.042H29.2297C28.6925 11.042 28.2549 11.471 28.2549 11.9974C28.2549 12.5239 28.6925 12.9529 29.2297 12.9529Z"
            fill="#9CA3AF" />
        <path id="Vector_4"
            d="M29.3577 9.0298C29.5065 9.0298 29.6504 8.99761 29.7847 8.93322L34.3235 6.7619C34.5573 6.65016 34.7331 6.45509 34.8181 6.21362C34.9031 5.97215 34.8867 5.71269 34.7727 5.48354C34.6587 5.25438 34.4597 5.08204 34.2143 4.99871C33.968 4.91538 33.7032 4.93147 33.4695 5.04321L28.9307 7.21453C28.6969 7.32627 28.5211 7.52134 28.4361 7.76281C28.351 8.00427 28.3675 8.26373 28.4815 8.49289C28.6467 8.82432 28.9819 9.0298 29.3577 9.0298Z"
            fill="#9CA3AF" />
        <path id="Vector_5"
            d="M34.3245 17.2331L29.7858 15.0618C29.552 14.95 29.2873 14.9339 29.0409 15.0173C28.7946 15.1006 28.5965 15.272 28.4815 15.5021C28.2458 15.9756 28.4468 16.5485 28.9298 16.7795L33.4686 18.9508C33.6028 19.0152 33.7468 19.0474 33.8956 19.0474C34.2714 19.0474 34.6076 18.8419 34.7718 18.5105C34.8858 18.2813 34.9023 18.0219 34.8172 17.7804C34.7322 17.5389 34.5574 17.3448 34.3226 17.2331H34.3245Z"
            fill="#9CA3AF" />
    </g>
</svg>