<svg width="51" height="50" viewBox="0 0 51 50" fill="none" xmlns="http://www.w3.org/2000/svg">
<g id="HOME">
<g id="Group">
<path id="Vector" d="M41.4648 0H9.53518C4.54444 0 0.5 4.04444 0.5 9.03518V40.9667C0.5 45.9556 4.54444 50 9.53518 50H41.4667C46.4556 50 50.5019 45.9556 50.5019 40.9648V9.03518C50.5 4.04444 46.4556 0 41.4648 0Z" fill=""/>
<g id="Group_2">
<path id="Vector_2" d="M18.9437 16.4006H13.4937V32.2414H18.9437V16.4006Z" fill="#ea580c"/>
<path id="Vector_3" d="M25.07 14.6965H20.3848V28.4354H25.07V14.6965Z" fill="#ea580c"/>
<path id="Vector_4" d="M31.2907 13.6262H26.687V28.4336H31.2889V13.6262H31.2907Z" fill="#ea580c"/>
<path id="Vector_5" d="M37.5076 14.6965H32.9058V28.4354H37.5076V14.6965Z" fill="#ea580c"/>
<path id="Vector_6" d="M37.5081 29.917H20.4692V36.3744H37.5081V29.917Z" fill="#ea580c"/>
</g>
</g>
</g>
</svg>
