<svg width="19" height="18" viewBox="0 0 19 18" fill="none" xmlns="http://www.w3.org/2000/svg">
    <path
        d="M13.8426 3.21729C13.255 3.21729 12.7776 3.69257 12.7776 4.27754C12.7776 4.86251 13.255 5.3378 13.8426 5.3378C14.4302 5.3378 14.9077 4.86251 14.9077 4.27754C14.9077 3.69257 14.4302 3.21729 13.8426 3.21729Z"
        fill="white" />
    <path
        d="M9.1294 11.8334C7.56244 11.8334 6.27703 10.5538 6.27703 8.99388C6.27703 7.43396 7.55019 6.15434 9.1294 6.15434C10.7086 6.15434 11.9818 7.42177 11.9818 8.99388C11.9818 10.566 10.6964 11.8334 9.1294 11.8334ZM9.1294 4.55786C6.68102 4.55786 4.67334 6.54432 4.67334 8.99388C4.67334 11.4434 6.66877 13.4177 9.1294 13.4177C11.59 13.4177 13.5855 11.4313 13.5855 8.99388C13.5855 6.55651 11.59 4.55786 9.1294 4.55786Z"
        fill="white" />
    <path
        d="M5.44469 1.69397C3.38805 1.69397 1.71091 3.35139 1.71091 5.41097V12.589C1.71091 14.6364 3.38805 16.306 5.44469 16.306H12.6552C14.7118 16.306 16.389 14.6364 16.389 12.589V5.41097C16.389 3.36357 14.7118 1.69397 12.6552 1.69397H5.44469ZM12.6552 18H5.44469C2.44542 18 0.00927734 15.5748 0.00927734 12.589V5.41097C0.00927734 2.42519 2.44542 0 5.44469 0H12.6552C15.6545 0 18.0906 2.42519 18.0906 5.41097V12.589C18.0906 15.5748 15.6545 18 12.6552 18Z"
        fill="white" />
</svg>