<svg width="24" height="27" viewBox="0 0 24 27" fill="none" xmlns="http://www.w3.org/2000/svg">
    <g id="MUSIC ICON">
        <path id="Vector"
            d="M4.79515 15.8143V19.996C4.41794 19.8604 4.01077 19.786 3.58686 19.786C1.60566 19.786 -0.000976562 21.4005 -0.000976562 23.3935C-0.000976562 25.3864 1.60478 27.001 3.58686 27.001C5.56894 27.001 7.06718 25.491 7.16853 23.5902H7.17382V13.855C5.61477 14.8076 4.79426 15.8151 4.79426 15.8151L4.79515 15.8143Z"
            fill="#9CA3AF" />
        <path id="Vector_2"
            d="M21.8929 0H6.90264C5.73842 0 4.79541 0.832978 4.79541 1.86179V13.5456C4.79541 13.5456 8.15058 9.92484 14.2228 9.92484H21.8929C23.0572 9.92484 24.0002 9.09186 24.0002 8.06305V1.86179C24.0002 0.833864 23.0563 0 21.8929 0ZM17.3929 6.03909L15.3527 7.22387L13.3124 8.40864C12.7502 8.73475 12.0478 8.32712 12.0478 7.67492V2.93669C12.0478 2.28449 12.7502 1.87686 13.3124 2.20296L15.3527 3.38774L17.3929 4.57252C17.9552 4.89862 17.9552 5.71387 17.3929 6.04086V6.03909Z"
            fill="#9CA3AF" />
        <path id="Vector_3"
            d="M22.1492 11.7777H21.6213V18.4096C21.2441 18.274 20.8369 18.1996 20.413 18.1996C18.4318 18.1996 16.8252 19.8141 16.8252 21.8071C16.8252 23.8 18.431 25.4146 20.413 25.4146C22.3951 25.4146 24.0009 23.8 24.0009 21.8071C24.0009 21.7415 23.9991 21.6759 23.9956 21.6103H24.0009V9.91675C24.0009 10.9447 23.1724 11.7785 22.1492 11.7785V11.7777Z"
            fill="#9CA3AF" />
    </g>
</svg>