<svg width="22" height="24" viewBox="0 0 22 24" fill="none" xmlns="http://www.w3.org/2000/svg">
    <g id="PODCAST ICON">
        <path id="Vector"
            d="M10.9991 18.9136C7.33974 18.9136 4.36328 15.9309 4.36328 12.264V6.64961C4.36328 2.98265 7.34071 0 10.9991 0C14.6575 0 17.6349 2.98265 17.6349 6.64961V12.264C17.6349 15.9309 14.6584 18.9136 10.9991 18.9136Z"
            fill="#ea580c" />
        <path id="Vector_2"
            d="M10.9995 24.0001C4.93442 24.0001 0 19.0554 0 12.9777C0 12.3833 0.479979 11.9023 1.07312 11.9023C1.66627 11.9023 2.14625 12.3833 2.14625 12.9777C2.14625 17.8696 6.11778 21.8494 10.9995 21.8494C15.8812 21.8494 19.8528 17.8696 19.8528 12.9777C19.8528 12.3833 20.3328 11.9023 20.9259 11.9023C21.519 11.9023 21.999 12.3833 21.999 12.9777C21.999 19.0554 17.0646 24.0001 10.9995 24.0001Z"
            fill="#ea580c" />
        <path id="Vector_3"
            d="M9.71235 7.02098C8.89092 7.02098 8.22266 6.35133 8.22266 5.52819C8.22266 4.70505 8.89092 4.0354 9.71235 4.0354C10.5338 4.0354 11.202 4.70505 11.202 5.52819C11.202 6.35133 10.5338 7.02098 9.71235 7.02098ZM9.71235 4.7207C9.26749 4.7207 8.90555 5.08338 8.90555 5.52917C8.90555 5.97495 9.26749 6.33764 9.71235 6.33764C10.1572 6.33764 10.5191 5.97495 10.5191 5.52917C10.5191 5.08338 10.1572 4.7207 9.71235 4.7207Z"
            fill="white" />
    </g>
</svg>