<svg width="35" height="25" viewBox="0 0 35 25" fill="none" xmlns="http://www.w3.org/2000/svg">
    <g id="QUIENES SOMOS ICON">
        <path id="Vector"
            d="M30.2038 9.28879C31.9108 7.6213 31.9108 4.91776 30.2038 3.25027C28.4969 1.58277 25.7293 1.58277 24.0224 3.25027C22.3154 4.91776 22.3154 7.6213 24.0224 9.2888C25.7293 10.9563 28.4969 10.9563 30.2038 9.28879Z"
            fill="#ea580c" />
        <path id="Vector_2"
            d="M29.5973 11.1035H24.6296C24.0363 11.1035 23.466 11.1983 22.9323 11.3704C22.6846 12.0373 22.3126 12.6468 21.8428 13.1707C24.696 13.9623 26.7926 16.5292 26.7926 19.5668V21.8119C26.8998 21.8119 27.0062 21.8119 27.1135 21.8094C29.7548 21.8693 32.3816 21.3288 34.9999 20.3808V16.3812C34.9999 13.4667 32.5808 11.1035 29.5973 11.1035Z"
            fill="#ea580c" />
        <path id="Vector_3"
            d="M7.88658 10.5398C10.3006 10.5398 12.2575 8.62808 12.2575 6.26988C12.2575 3.91169 10.3006 2 7.88658 2C5.47257 2 3.51562 3.91169 3.51562 6.26988C3.51562 8.62808 5.47257 10.5398 7.88658 10.5398Z"
            fill="#ea580c" />
        <path id="Vector_4"
            d="M13.1597 13.1707C12.6898 12.6468 12.3178 12.0381 12.0701 11.3713C11.5356 11.1983 10.9644 11.1035 10.3703 11.1035H5.40262C2.41914 11.1035 0 13.4667 0 16.3812V20.3808C2.61832 21.3288 5.246 21.8684 7.88645 21.8094C7.99455 21.8119 8.1018 21.8119 8.20991 21.8119V19.5668C8.20991 16.5292 10.3064 13.9623 13.1597 13.1707Z"
            fill="#ea580c" />
        <path id="Vector_5"
            d="M17.5008 13.7263C19.9149 13.7263 21.8718 11.8146 21.8718 9.45641C21.8718 7.09822 19.9149 5.18652 17.5008 5.18652C15.0868 5.18652 13.1299 7.09822 13.1299 9.45641C13.1299 11.8146 15.0868 13.7263 17.5008 13.7263Z"
            fill="#ea580c" />
        <path id="Vector_6"
            d="M19.9845 14.2891H15.0169C12.0334 14.2891 9.61426 16.6523 9.61426 19.5668V23.5664C12.2326 24.5143 14.8603 25.054 17.5007 24.995C20.142 25.0548 22.7688 24.5143 25.3872 23.5664V19.5668C25.3872 16.6523 22.968 14.2891 19.9845 14.2891Z"
            fill="#ea580c" />
    </g>
</svg>