<svg xmlns="http://www.w3.org/2000/svg" width="19" height="18" viewBox="0 0 19 18" fill="none">
    <path
        d="M9.96535 0C14.9601 0 18.9999 4.04604 18.9999 9.03047C18.9999 13.954 14.9111 18 9.96535 18C4.99513 18 0.94305 13.9661 0.918566 9.00609C0.894082 4.07041 4.99513 0 9.96535 0ZM8.83909 4.86256C7.39454 4.86256 5.96223 5.04536 4.55441 5.35003C4.26061 5.41097 4.04026 5.5694 3.93008 5.8497C3.8199 6.14218 3.85662 6.41029 4.07698 6.65403C4.30957 6.90995 4.59114 6.9587 4.92167 6.88558C6.56209 6.53216 8.21475 6.36154 9.8919 6.47123C11.8261 6.60528 13.6502 7.12932 15.4008 7.94584C15.5599 8.01896 15.7558 8.05552 15.9272 8.04333C16.2699 8.00677 16.527 7.72647 16.576 7.38524C16.625 7.03182 16.4536 6.71496 16.0863 6.53216C13.7971 5.43534 11.3854 4.85037 8.85133 4.86256H8.83909ZM8.20251 7.92146C7.35782 7.92146 6.13363 8.09208 4.93392 8.38456C4.50545 8.48206 4.2851 8.79892 4.37079 9.15234C4.45648 9.51794 4.79925 9.68856 5.21548 9.60325C5.69291 9.50575 6.17036 9.39607 6.64779 9.32295C8.82686 8.98172 10.9447 9.1889 12.9769 10.042C13.4543 10.237 13.9195 10.4807 14.3969 10.7001C14.654 10.8219 14.9233 10.7854 15.1192 10.6026C15.3028 10.432 15.4008 10.1395 15.2661 9.92011C15.1804 9.76168 15.0335 9.61544 14.8744 9.53013C13.9317 9.01828 12.9401 8.61611 11.8996 8.33582C10.8223 8.04333 9.72052 7.89709 8.21476 7.90928L8.20251 7.92146ZM8.54529 10.8463C7.27212 10.8463 6.18259 10.9926 5.09306 11.1997C4.76253 11.2607 4.5789 11.5288 4.65235 11.8456C4.71356 12.1259 4.98289 12.2965 5.28894 12.2356C5.5705 12.1869 5.85206 12.1381 6.13362 12.0894C7.28436 11.9066 8.42286 11.8334 9.58585 11.9553C10.9202 12.1016 12.1567 12.5525 13.2952 13.2715C13.589 13.4543 13.9073 13.4056 14.0786 13.1496C14.25 12.8937 14.1643 12.5768 13.8705 12.3819C13.8216 12.3575 13.7848 12.3331 13.7359 12.2965C12.0954 11.285 10.3081 10.8219 8.54529 10.8463Z"
        fill="white" />
</svg>