<svg xmlns="http://www.w3.org/2000/svg" width="19" height="18" viewBox="0 0 19 18" fill="none">
<path d="M16.1406 0C16.6425 0 17.1444 0 17.6586 0C17.6218 0.0609343 17.6096 0.121869 17.5606 0.170616C15.4672 2.5958 13.3739 5.03317 11.2805 7.45836C11.1581 7.59242 11.1581 7.67772 11.2683 7.82397C13.5697 11.151 15.859 14.4902 18.1605 17.8294C18.1972 17.8781 18.2094 17.9513 18.2339 18.0122H13.0556C12.9944 17.9513 12.9332 17.8903 12.8842 17.8172C11.354 15.5992 9.82371 13.3812 8.30571 11.1632C8.28123 11.1266 8.25675 11.1022 8.22002 11.0535C8.17105 11.1022 8.13433 11.1388 8.0976 11.1875C6.78771 12.7109 5.46559 14.2343 4.1557 15.7576C3.50688 16.5132 2.85805 17.2566 2.19699 18.0122H0.67899C0.67899 18.0122 0.715715 17.9025 0.752441 17.8538C2.95599 15.2945 5.15954 12.7353 7.37533 10.176C7.4855 10.0542 7.4855 9.96885 7.38757 9.8348C5.17178 6.61747 2.95599 3.40014 0.740199 0.19499C0.703473 0.146242 0.691232 0.0731212 0.666748 0.0121869C2.4051 0 4.14346 0 5.88181 0C7.39981 2.19364 8.90557 4.38727 10.4358 6.60528C10.4848 6.55653 10.5093 6.51997 10.546 6.48341C11.9661 4.83819 13.3861 3.19296 14.7939 1.54773C15.2346 1.03588 15.6876 0.524035 16.1406 0ZM16.0793 16.8301C16.0304 16.7569 15.9937 16.6838 15.9447 16.6229C12.3823 11.541 8.81988 6.45904 5.26972 1.37712C5.18402 1.24306 5.07384 1.19431 4.92694 1.19431C4.26588 1.19431 3.59257 1.19431 2.93151 1.19431C2.89478 1.19431 2.8703 1.19431 2.82133 1.19431C2.85805 1.24306 2.8703 1.29181 2.89478 1.32837C6.48167 6.44685 10.0563 11.5531 13.6432 16.6716C13.7289 16.7935 13.8146 16.8422 13.9615 16.8422C14.6348 16.8422 15.3203 16.8422 15.9936 16.8301C16.0181 16.8301 16.0426 16.8301 16.0916 16.8179L16.0793 16.8301Z" fill="white"/>
</svg>