<?xml version="1.0" encoding="utf-8"?>
<!-- Generator: Adobe Illustrator 28.0.0, SVG Export Plug-In . SVG Version: 6.00 Build 0)  -->
<svg version="1.1" id="Layer_1" xmlns="http://www.w3.org/2000/svg" xmlns:xlink="http://www.w3.org/1999/xlink" x="0px" y="0px"
	 viewBox="0 0 1200 600" style="enable-background:new 0 0 1200 600;" xml:space="preserve">
<style type="text/css">
	.st0{fill:#FFFFFF;}
</style>
<g>
	<g>
		<g>
			<path class="st0" d="M476.95,390.01l-0.73,6.01l-8.64,0.92l0.57-4.97c0.2-2,0.29-3.04,0.21-3.85c-0.2-1.89-1.6-2.83-3.96-2.58
				c-2.84,0.3-4.09,1.93-4.58,5.74l-3.16,25.59c-0.13,1.31-0.16,2.34-0.1,2.95c0.21,1.96,1.6,2.91,3.96,2.66
				c3.04-0.32,4.18-1.81,4.72-6.44l0.76-6.36l8.64-0.92l-0.68,5.88c-0.63,5.66-1.86,8.86-4.15,11.09c-2.11,2-5.32,3.23-9.51,3.67
				c-7.63,0.81-12.05-1.59-12.62-6.93c-0.13-1.28-0.14-2.64,0.24-5.49l2.98-24.07c1.19-9.41,5.01-13.3,14.13-14.26
				c7.36-0.78,11.55,1.43,12.08,6.43C477.25,386.36,477.21,387.94,476.95,390.01z"/>
			<path class="st0" d="M511.57,387.71l-2.69,22.34c-0.56,4.43-0.95,6.45-1.78,8.31c-1.81,4.15-5.84,6.7-11.59,7.3
				c-8.03,0.85-12.49-1.88-13.14-8.03c-0.17-1.56-0.12-3.06,0.21-5.76l2.76-22.27c0.69-5.67,1.76-8.52,3.91-10.73
				c2.1-2.07,5.23-3.42,9.28-3.85c7.83-0.83,12.57,2.01,13.2,7.95C511.89,384.27,511.78,385.85,511.57,387.71z M498.85,381.75
				c-1.62,0.17-2.84,0.92-3.53,2.08c-0.52,0.94-0.8,2.14-1.13,4.76l-2.85,23.38c-0.29,2.42-0.35,3.11-0.28,3.85
				c0.23,2.16,1.77,3.16,4.33,2.88c1.56-0.16,2.78-0.84,3.36-1.86c0.58-0.95,0.81-2.06,1.18-4.97l2.94-23.8
				c0.27-2,0.22-2.48,0.12-3.36C502.77,382.57,501.22,381.5,498.85,381.75z"/>
			<path class="st0" d="M541.99,419.72l-8.64,0.91l-0.28-7.82l-8.1,0.86l-2.15,8.08l-9.05,0.96l14.4-49.73l10.06-1.06L541.99,419.72
				z M526.81,406.03l6.07-0.64l-0.68-20.61L526.81,406.03z"/>
			<path class="st0" d="M574.78,375.01l-8.85,0.94l-5.13,41.78l-8.85,0.94l5.14-41.78l-8.78,0.93l0.83-7.05l26.47-2.8L574.78,375.01
				z"/>
			<path class="st0" d="M602.95,369.84l-18.72,37.9l14.65-1.55l-0.9,7.6l-24.91,2.64l0.7-5.68l18.13-37.08L579.4,375l0.98-7.54
				l23.16-2.45L602.95,369.84z"/>
			<path class="st0" d="M630.76,410.32l-8.64,0.92l-0.28-7.82l-8.1,0.86l-2.15,8.08l-9.04,0.96l14.4-49.73l10.06-1.06L630.76,410.32
				z M615.59,396.63l6.08-0.64l-0.68-20.61L615.59,396.63z"/>
			<path class="st0" d="M667.73,369.81l-0.72,6.02l-8.64,0.92l0.57-4.98c0.2-2,0.3-3.03,0.21-3.84c-0.2-1.89-1.6-2.84-3.96-2.58
				c-2.84,0.3-4.1,1.93-4.59,5.75l-3.16,25.59c-0.13,1.31-0.16,2.34-0.1,2.95c0.21,1.96,1.6,2.91,3.96,2.66
				c3.04-0.32,4.18-1.81,4.72-6.44l0.76-6.36l8.64-0.91l-0.68,5.87c-0.63,5.67-1.86,8.87-4.15,11.09c-2.11,2-5.32,3.23-9.51,3.67
				c-7.63,0.81-12.05-1.59-12.61-6.93c-0.13-1.28-0.14-2.64,0.24-5.49l2.98-24.07c1.19-9.41,5.01-13.3,14.12-14.26
				c7.36-0.78,11.55,1.43,12.08,6.43C668.03,366.16,667.99,367.73,667.73,369.81z"/>
			<path class="st0" d="M702.35,367.51l-2.69,22.33c-0.56,4.43-0.96,6.45-1.78,8.31c-1.81,4.15-5.84,6.7-11.59,7.3
				c-8.03,0.85-12.49-1.88-13.14-8.03c-0.17-1.56-0.12-3.06,0.21-5.76l2.76-22.28c0.69-5.67,1.76-8.52,3.91-10.72
				c2.1-2.07,5.24-3.42,9.28-3.85c7.83-0.83,12.57,2.01,13.2,7.95C702.67,364.06,702.56,365.65,702.35,367.51z M689.63,361.55
				c-1.62,0.17-2.84,0.92-3.53,2.08c-0.52,0.94-0.8,2.13-1.13,4.76l-2.85,23.38c-0.29,2.42-0.35,3.11-0.28,3.85
				c0.23,2.16,1.77,3.16,4.33,2.89c1.56-0.17,2.78-0.84,3.36-1.86c0.58-0.95,0.8-2.07,1.18-4.97l2.95-23.79
				c0.27-2.01,0.22-2.49,0.12-3.36C693.55,362.36,692,361.3,689.63,361.55z"/>
			<path class="st0" d="M732.76,399.52l-8.64,0.92l-0.28-7.82l-8.1,0.86l-2.15,8.08l-9.05,0.96l14.4-49.73l10.06-1.06L732.76,399.52
				z M717.59,385.83l6.07-0.64l-0.68-20.61L717.59,385.83z"/>
			<path class="st0" d="M761.16,396.51l-21.67,2.29l5.96-48.83l8.78-0.93l-5.04,41.43l12.9-1.36L761.16,396.51z"/>
			<path class="st0" d="M796.45,356.18l-0.73,6.01l-8.64,0.92l0.57-4.97c0.19-2,0.29-3.04,0.21-3.85c-0.2-1.89-1.6-2.83-3.96-2.58
				c-2.84,0.3-4.1,1.93-4.59,5.74l-3.16,25.59c-0.14,1.31-0.16,2.34-0.1,2.95c0.21,1.96,1.6,2.91,3.96,2.66
				c3.04-0.32,4.18-1.81,4.71-6.44l0.76-6.36l8.64-0.92l-0.68,5.88c-0.63,5.66-1.86,8.86-4.15,11.09c-2.11,2-5.32,3.23-9.51,3.67
				c-7.63,0.81-12.05-1.59-12.61-6.93c-0.13-1.28-0.14-2.64,0.24-5.49l2.98-24.07c1.19-9.41,5.01-13.3,14.13-14.26
				c7.36-0.78,11.55,1.43,12.08,6.43C796.75,352.52,796.71,354.1,796.45,356.18z"/>
			<path class="st0" d="M831.07,353.88l-2.69,22.34c-0.56,4.43-0.95,6.45-1.78,8.31c-1.81,4.15-5.84,6.7-11.58,7.3
				c-8.04,0.85-12.49-1.88-13.14-8.03c-0.17-1.56-0.12-3.06,0.21-5.76l2.76-22.27c0.69-5.67,1.75-8.52,3.91-10.73
				c2.1-2.07,5.23-3.42,9.28-3.85c7.83-0.83,12.57,2.01,13.2,7.95C831.39,350.43,831.28,352.01,831.07,353.88z M818.35,347.92
				c-1.62,0.17-2.84,0.92-3.53,2.08c-0.52,0.94-0.8,2.14-1.13,4.76l-2.85,23.38c-0.29,2.42-0.35,3.11-0.28,3.85
				c0.23,2.16,1.77,3.16,4.33,2.89c1.55-0.17,2.78-0.84,3.36-1.86c0.58-0.95,0.81-2.06,1.18-4.97l2.94-23.8
				c0.27-2,0.22-2.48,0.12-3.36C822.26,348.73,820.71,347.67,818.35,347.92z"/>
			<path class="st0" d="M865.16,347.33l-0.45,4.15l-8.78,0.93l0.4-3.39c0.12-0.83,0.12-1.52,0.04-2.19
				c-0.19-1.82-1.45-2.71-3.74-2.47c-1.69,0.18-2.7,0.9-3.3,2.4c-0.71,1.64-1.04,3.73-0.88,5.28c0.18,1.75,0.78,2.85,2.03,3.68
				l6.04,4.07c2.21,1.54,3.63,2.69,4.43,3.83c0.97,1.4,1.56,3.11,1.77,5.14c0.23,2.23-0.17,6.1-0.97,9.52
				c-1.41,6.02-5.31,9.17-12.4,9.92c-7.83,0.83-12.55-1.87-13.14-7.41c-0.13-1.22-0.16-2.17,0.22-5.01l0.57-4.29l8.71-0.92
				l-0.54,3.95c-0.27,2.01-0.3,3.58-0.23,4.33c0.19,1.82,1.87,2.81,4.23,2.56c1.55-0.16,2.84-0.92,3.4-2.07
				c0.27-0.64,0.52-1.49,0.75-2.54c0.49-2.44,0.63-4.36,0.49-5.65c-0.19-1.82-1.25-3.42-3.3-4.71l-5.13-3.28
				c-0.73-0.47-1.32-0.82-1.76-1.18c-0.81-0.59-1.75-1.65-2.32-2.55c-0.82-1.28-1.31-2.73-1.49-4.42
				c-0.41-3.91,0.37-8.09,2.21-11.36c1.95-3.55,5.43-5.49,10.62-6.04c7.7-0.82,12.03,1.45,12.58,6.58
				C865.33,345.13,865.3,346.16,865.16,347.33z"/>
			<path class="st0" d="M883.95,383.51l-8.62,0.91l4.67-38.26l-0.69,0.52c-1.46,1.05-3.86,2.27-7.05,3.13l0.98-6.96
				c2.29-0.83,3.08-1.22,4.74-2.29c2.23-1.5,3.77-3.08,6.38-6.64l5.75-0.61L883.95,383.51z"/>
			<path class="st0" d="M926.02,343.15l-2.8,22.79c-0.54,4.68-1.41,7.75-2.68,9.89c-1.9,3.19-5.42,5.12-10.21,5.63
				c-7.07,0.75-11.6-1.98-12.17-7.28c-0.16-1.47-0.08-2.9,0.14-5.01l3.2-26.04c0.95-7.92,5.12-12.16,12.63-12.96
				c7-0.74,11.39,2.07,12,7.82C926.32,339.61,926.29,340.73,926.02,343.15z M914.02,336.74c-2.58,0.27-3.41,1.56-3.94,5.71
				l-3.3,26.57c-0.25,1.88-0.24,2.7-0.16,3.44c0.18,1.69,1.62,2.67,3.69,2.45c2.58-0.27,3.67-1.88,4.17-5.66l3.28-26.71
				c0.14-1.44,0.25-2.56,0.19-3.15C917.75,337.47,916.23,336.51,914.02,336.74z"/>
			<path class="st0" d="M952.91,359.89l3.17-0.34l-0.82,7.01l-3.24,0.34l-1.15,9.51l-7.88,0.83l1.16-9.51l-14.66,1.56l0.82-7.02
				l16.53-35.2l10.17-1.07L952.91,359.89z M937.51,361.52l7.52-0.8l3.81-25.88L937.51,361.52z"/>
			<path class="st0" d="M971.58,374.23l-8.62,0.91l1.2-9.74l8.62-0.92L971.58,374.23z"/>
			<path class="st0" d="M1009.96,331.5l-0.4,3.32c-0.06,0.83-0.21,1.51-0.3,2.04c-0.31,1.97-0.9,3.45-1.97,4.6
				c-1.33,1.48-2.82,2.24-5.81,2.85c3.62,0.43,5.6,2.24,5.96,5.63c0.14,1.32,0.12,3.26-0.08,4.85l-0.57,5.13
				c-0.32,2.64-0.73,4.39-1.45,6.04c-1.68,3.83-5.33,5.93-11.23,6.55c-7.66,0.81-11.77-1.44-12.35-6.89
				c-0.1-0.96-0.02-2.31,0.18-3.9l0.52-4.22l8.47-0.9l-0.47,4c-0.11,1.13-0.16,2.03-0.1,2.62c0.21,1.98,1.5,2.89,3.78,2.65
				c0.96-0.1,1.68-0.33,2.3-0.84c1.09-0.93,1.51-1.95,1.87-4.82l0.59-4.31c0.26-1.74,0.25-3.23,0.15-4.19
				c-0.3-2.8-1.88-3.75-5.57-3.36l-1.76,0.18l0.72-5.89l1.77-0.19c2.28-0.24,3.85-0.93,5.07-2.1c1.08-1.08,1.36-1.93,1.74-4.73
				l0.46-3.4c0.08-0.68,0.08-1.35,0.03-1.86c-0.21-1.92-1.34-2.76-3.55-2.53c-2.58,0.27-3.56,1.5-4.03,5.49l-0.48,3.85l-8.11,0.86
				l0.43-3.62c0.2-1.66,0.39-2.65,0.43-2.95c0.35-2.35,0.91-4.05,1.74-5.4c1.86-2.8,5.13-4.34,10.29-4.89
				c7.14-0.76,11.27,1.64,11.83,6.94C1010.17,329.24,1010.06,330.37,1009.96,331.5z"/>
			<path class="st0" d="M1044.12,325.78l-14.51,1.54l-1.5,12.24l13.64-1.44l-0.87,7.26l-13.64,1.45l-2.67,21.79l-8.85,0.94
				l5.96-48.83l23.36-2.47L1044.12,325.78z"/>
			<path class="st0" d="M1085.62,362.15l-8.78,0.93l5.96-42.41l-12.84,43.14l-8.17,0.87l-2.75-41.49l-4.47,42.26l-8.64,0.92
				l5.96-48.83l14.31-1.52l1.44,33.57l9.84-34.76l14.11-1.5L1085.62,362.15z"/>
		</g>
	</g>
	<g>
		<g>
			<rect x="67.74" y="303.39" class="st0" width="37.49" height="108.99"/>
			<rect x="115.16" y="291.66" class="st0" width="32.24" height="94.52"/>
			<rect x="158.52" y="284.31" class="st0" width="31.67" height="101.88"/>
			<rect x="201.3" y="291.66" class="st0" width="31.66" height="94.52"/>
			<rect x="115.74" y="396.39" class="st0" width="117.23" height="44.43"/>
		</g>
		<g>
			<path class="st0" d="M315.35,350.39h37.86l3.83,25.91l40.38-4.61l-38.85-207.78h-47.02l-43.18,222.52l41.8-4.77L315.35,350.39z
				 M335.22,220.39L348.79,316h-28.4L335.22,220.39z"/>
			<polygon class="st0" points="517.29,352.92 457.02,352.92 457.02,163.91 416.01,163.91 416.01,369.57 517.29,358 			"/>
			<polygon class="st0" points="585.14,196.09 626.47,196.09 626.47,163.91 502.78,163.91 502.78,196.09 543.8,196.09 543.8,354.97 
				585.14,350.25 			"/>
			<path class="st0" d="M705.86,163.91h-47.02l-35.31,181.95l113.91-13.01L705.86,163.91z M667.68,316l14.83-95.61L696.08,316
				H667.68z"/>
			<polygon class="st0" points="864.11,163.91 822.14,163.91 801.95,311.27 780.18,163.91 736.63,163.91 769.41,329.2 
				834.37,321.78 			"/>
			<path class="st0" d="M916.46,219.45c0-9.15-1.26-18.93,7.89-25.24c5.05-3.79,11.05-4.1,13.25-4.1c10.41,0,15.15,5.68,17.04,9.78
				c3.47,6.63,2.52,16.73,2.52,17.99v89.88l41.33-4.72v-88c0-15.46-1.58-22.4-5.05-29.66c-6.63-12.94-23.67-26.19-55.85-26.19
				c-24.93,0-40.39,7.26-48.59,14.51c-14.83,13.25-13.89,35.65-13.89,40.39v103.04l41.33-4.72V219.45z"/>
			<polygon class="st0" points="1132.26,163.91 1023.71,163.91 1023.71,198.3 1085.56,198.3 1041.97,298.06 1085.21,293.12 
				1132.26,186 			"/>
		</g>
	</g>
</g>
</svg>
