<?xml version="1.0" encoding="utf-8"?>
<!-- Generator: Adobe Illustrator 28.0.0, SVG Export Plug-In . SVG Version: 6.00 Build 0)  -->
<svg version="1.1" id="Layer_1" xmlns="http://www.w3.org/2000/svg" xmlns:xlink="http://www.w3.org/1999/xlink" x="0px" y="0px"
	 viewBox="0 0 1200 600" style="enable-background:new 0 0 1200 600;" xml:space="preserve">
<style type="text/css">
	.st0{fill:#FFFFFF;}
</style>
<g>
	<g>
		<g>
			<g>
				<g>
					<rect x="67.74" y="303.39" class="st0" width="37.49" height="108.99"/>
					<rect x="115.16" y="291.66" class="st0" width="32.24" height="94.52"/>
					<rect x="158.52" y="284.31" class="st0" width="31.67" height="101.88"/>
					<rect x="201.3" y="291.66" class="st0" width="31.66" height="94.52"/>
					<rect x="115.74" y="396.39" class="st0" width="117.23" height="44.43"/>
				</g>
			</g>
			<g>
				<path class="st0" d="M315.35,350.39h37.86l3.83,25.91l40.38-4.61l-38.85-207.78h-47.02l-43.18,222.52l41.8-4.77L315.35,350.39z
					 M335.22,220.39L348.79,316h-28.4L335.22,220.39z"/>
				<polygon class="st0" points="517.29,352.92 457.02,352.92 457.02,163.91 416.01,163.91 416.01,369.57 517.29,358 				"/>
				<polygon class="st0" points="585.14,196.09 626.47,196.09 626.47,163.91 502.78,163.91 502.78,196.09 543.8,196.09 
					543.8,354.97 585.14,350.25 				"/>
				<path class="st0" d="M705.86,163.91h-47.02l-35.31,181.95l113.91-13.01L705.86,163.91z M667.68,316l14.83-95.61L696.08,316
					H667.68z"/>
				<polygon class="st0" points="864.11,163.91 822.14,163.91 801.95,311.27 780.18,163.91 736.63,163.91 769.41,329.2 
					834.37,321.78 				"/>
				<path class="st0" d="M916.46,219.45c0-9.15-1.26-18.93,7.89-25.24c5.05-3.79,11.05-4.1,13.25-4.1c10.41,0,15.15,5.68,17.04,9.78
					c3.47,6.63,2.52,16.73,2.52,17.99v89.88l41.33-4.72v-88c0-15.46-1.58-22.4-5.05-29.66c-6.63-12.94-23.67-26.19-55.85-26.19
					c-24.93,0-40.39,7.26-48.59,14.51c-14.83,13.25-13.89,35.65-13.89,40.39v103.04l41.33-4.72V219.45z"/>
				<polygon class="st0" points="1132.26,163.91 1023.71,163.91 1023.71,198.3 1085.56,198.3 1041.97,298.06 1085.21,293.12 
					1132.26,186 				"/>
			</g>
		</g>
	</g>
	<g>
		<path class="st0" d="M621.51,413.5l-9.16,0.97l6.22-44.28l-13.41,45.05l-8.53,0.9l-2.88-43.32l-4.67,44.12l-9.02,0.96l6.22-50.98
			l14.94-1.58l1.5,35.05l10.27-36.3l14.74-1.56L621.51,413.5z"/>
		<path class="st0" d="M658.28,409.61l-9.02,0.96l-0.29-8.17l-8.46,0.89l-2.24,8.43l-9.45,1l15.03-51.91l10.5-1.11L658.28,409.61z
			 M642.44,395.31l6.34-0.67l-0.71-21.52L642.44,395.31z"/>
		<path class="st0" d="M693.76,360.51l-19.55,39.56l15.3-1.62l-0.94,7.94l-26.01,2.75l0.73-5.92l18.92-38.71l-13.04,1.38l1.02-7.88
			l24.18-2.56L693.76,360.51z"/>
		<path class="st0" d="M722.8,402.78l-9.03,0.96l-0.29-8.17l-8.46,0.89l-2.24,8.43l-9.45,1l15.04-51.91l10.5-1.11L722.8,402.78z
			 M706.96,388.48l6.35-0.67l-0.71-21.52L706.96,388.48z"/>
		<path class="st0" d="M757.04,356.1l-9.24,0.98l-5.36,43.62l-9.24,0.98l5.36-43.63l-9.17,0.97l0.86-7.36l27.64-2.93L757.04,356.1z"
			/>
		<path class="st0" d="M779.83,396.74l-22.62,2.4l6.22-50.98l9.17-0.97l-5.26,43.25L780.8,389L779.83,396.74z"/>
		<path class="st0" d="M813.23,393.2l-9.03,0.96l-0.29-8.17l-8.46,0.9l-2.24,8.43l-9.45,1l15.04-51.91l10.5-1.11L813.23,393.2z
			 M797.39,378.9l6.35-0.67l-0.71-21.52L797.39,378.9z M805.56,339.62l-6.48,0.69l4.71-10.05l10.93-1.16L805.56,339.62z"/>
		<path class="st0" d="M848.44,389.47l-11.56,1.22l-4.16-37.27l-3.88,38.12l-8.6,0.91l6.22-50.98l11.77-1.25l4.36,36.46l3.68-37.31
			l8.39-0.89L848.44,389.47z"/>
		<path class="st0" d="M873.54,386.81l-9,0.96l4.87-39.95l-0.72,0.54c-1.52,1.09-4.03,2.37-7.36,3.27l1.02-7.26
			c2.4-0.87,3.21-1.27,4.96-2.39c2.33-1.57,3.94-3.22,6.66-6.92l5.99-0.63L873.54,386.81z"/>
		<path class="st0" d="M917.47,344.67l-2.93,23.79c-0.57,4.88-1.47,8.09-2.79,10.32c-1.98,3.33-5.66,5.35-10.66,5.88
			c-7.38,0.78-12.11-2.06-12.7-7.6c-0.16-1.54-0.09-3.03,0.15-5.23l3.34-27.19c0.99-8.27,5.35-12.7,13.19-13.53
			c7.31-0.78,11.9,2.16,12.53,8.16C917.78,340.98,917.75,342.15,917.47,344.67z M904.94,337.99c-2.69,0.28-3.56,1.62-4.11,5.96
			l-3.44,27.74c-0.26,1.97-0.25,2.82-0.17,3.59c0.19,1.77,1.69,2.78,3.85,2.55c2.69-0.29,3.84-1.96,4.35-5.91l3.43-27.9
			c0.15-1.49,0.26-2.67,0.2-3.29C908.83,338.74,907.25,337.74,904.94,337.99z"/>
		<path class="st0" d="M951.79,338.16l-0.41,3.47c-0.06,0.87-0.22,1.58-0.32,2.14c-0.33,2.06-0.94,3.6-2.06,4.81
			c-1.39,1.55-2.94,2.33-6.06,2.98c3.78,0.45,5.85,2.34,6.22,5.88c0.15,1.38,0.13,3.4-0.08,5.06l-0.6,5.35
			c-0.33,2.76-0.76,4.59-1.51,6.3c-1.75,4-5.56,6.19-11.72,6.84c-8,0.85-12.29-1.5-12.89-7.19c-0.11-1-0.02-2.41,0.19-4.06
			l0.54-4.41l8.84-0.94l-0.49,4.17c-0.11,1.18-0.17,2.12-0.1,2.74c0.22,2.07,1.57,3.02,3.95,2.77c1-0.11,1.75-0.34,2.4-0.87
			c1.14-0.98,1.57-2.03,1.95-5.03l0.62-4.5c0.27-1.82,0.26-3.37,0.16-4.38c-0.31-2.92-1.97-3.91-5.82-3.5l-1.84,0.2l0.75-6.15
			l1.85-0.2c2.38-0.25,4.02-0.97,5.29-2.19c1.13-1.13,1.42-2.02,1.81-4.94l0.48-3.55c0.08-0.71,0.08-1.41,0.03-1.95
			c-0.21-2-1.4-2.89-3.71-2.64c-2.69,0.28-3.72,1.56-4.22,5.73l-0.51,4.02l-8.46,0.89l0.45-3.78c0.21-1.73,0.41-2.76,0.45-3.08
			c0.37-2.45,0.95-4.23,1.81-5.64c1.95-2.93,5.35-4.53,10.74-5.1c7.46-0.79,11.77,1.71,12.36,7.24
			C952.01,335.8,951.9,336.98,951.79,338.16z"/>
		<path class="st0" d="M966.31,376.99l-9,0.95l1.26-10.17l9-0.95L966.31,376.99z"/>
		<path class="st0" d="M1006.43,328.79l-16.61,1.76l-1.51,10.74c2.04-2.09,4.48-3.27,7.48-3.59c5.15-0.55,8.61,1.96,9.09,6.5
			c0.15,1.38,0.14,2.78-0.25,5.7l-1.1,8.67c-0.24,2.13-0.41,3.47-0.51,3.94c-0.33,2.76-1.02,5.09-1.86,6.66
			c-1.8,3.53-5.34,5.39-11.11,6c-8.08,0.86-12.44-1.41-13.01-6.79c-0.12-1.16-0.09-2.32,0.02-3.5l0.62-5.2l8.85-0.93l-0.52,3.94
			c-0.2,1.81-0.23,2.28-0.16,2.9c0.2,1.92,1.62,2.78,3.92,2.54c1.24-0.13,2.06-0.45,2.76-1.15c1.06-1.04,1.36-1.85,1.88-6.5
			l1.05-9.21c0.23-2.2,0.33-2.76,0.25-3.45c-0.21-2-1.64-3.02-3.79-2.79c-2.62,0.28-4.37,2.1-5.23,5.77l-7.08,0.75l3.95-28.11
			l23.84-2.53L1006.43,328.79z"/>
		<path class="st0" d="M1042.02,326.41l-15.15,1.61l-1.57,12.78l14.24-1.51l-0.91,7.58l-14.24,1.51l-2.79,22.75l-9.24,0.98
			l6.22-50.98l24.39-2.58L1042.02,326.41z"/>
		<path class="st0" d="M1085.36,364.38l-9.17,0.97l6.22-44.28L1069,366.11l-8.53,0.9l-2.87-43.32l-4.67,44.12l-9.03,0.96l6.22-50.98
			l14.94-1.58l1.51,35.05l10.27-36.3l14.73-1.56L1085.36,364.38z"/>
	</g>
</g>
</svg>
