<?xml version="1.0" encoding="utf-8"?>
<!-- Generator: Adobe Illustrator 28.0.0, SVG Export Plug-In . SVG Version: 6.00 Build 0)  -->
<svg version="1.1" id="Layer_1" xmlns="http://www.w3.org/2000/svg" xmlns:xlink="http://www.w3.org/1999/xlink" x="0px" y="0px"
	 viewBox="0 0 1200 600" style="enable-background:new 0 0 1200 600;" xml:space="preserve">
<style type="text/css">
	.st0{fill:#FFFFFF;}
</style>
<g>
	<g>
		<g>
			<path class="st0" d="M618.48,370.38l-8.85,0.94l-5.14,41.78l-8.85,0.94l5.14-41.78l-8.78,0.93l0.83-7.05l26.47-2.8L618.48,370.38
				z"/>
			<path class="st0" d="M643.38,408.98l-8.64,0.92l-0.28-7.82l-8.1,0.86l-2.15,8.08l-9.04,0.96l14.4-49.73l10.06-1.06L643.38,408.98
				z M628.21,395.29l6.08-0.64l-0.68-20.61L628.21,395.29z"/>
			<path class="st0" d="M680.3,368.55l-0.64,5.6c-0.12,1.38-0.34,2.56-0.52,3.47c-0.39,2.09-1.21,4.02-2.31,5.29
				c-1.64,1.95-3.86,2.87-7.98,3.3l-7.43,0.79l-2.49,20.34l-8.85,0.94l5.96-48.83l12.29-1.3l3.04-0.32
				c2.16-0.23,3.69,0.08,4.97,0.57c2.28,0.92,3.73,3.02,4.03,5.78C680.52,365.45,680.44,367.23,680.3,368.55z M667.87,365.29
				l-3.84,0.41l-1.76,14.32l4.25-0.45c3.38-0.36,4.11-1.12,4.54-4.79l0.57-4.97c0.1-0.96,0.16-1.72,0.1-2.26
				C671.53,365.65,670.51,365.01,667.87,365.29z"/>
			<path class="st0" d="M708.43,402.09l-8.64,0.92l-0.28-7.82l-8.1,0.86l-2.15,8.08l-9.04,0.96l14.4-49.72l10.06-1.06L708.43,402.09
				z M693.26,388.4l6.07-0.64l-0.68-20.61L693.26,388.4z"/>
			<path class="st0" d="M745.41,361.59l-0.73,6.01l-8.64,0.92l0.57-4.97c0.19-2,0.29-3.04,0.21-3.85c-0.2-1.89-1.6-2.83-3.97-2.58
				c-2.84,0.3-4.09,1.93-4.58,5.74l-3.16,25.59c-0.14,1.31-0.17,2.34-0.1,2.95c0.21,1.96,1.6,2.91,3.97,2.66
				c3.04-0.32,4.18-1.81,4.71-6.44l0.76-6.36l8.64-0.92l-0.68,5.88c-0.63,5.66-1.86,8.86-4.15,11.09c-2.11,2-5.32,3.23-9.51,3.67
				c-7.63,0.81-12.05-1.59-12.61-6.93c-0.13-1.28-0.14-2.64,0.24-5.49l2.98-24.07c1.19-9.41,5.01-13.3,14.12-14.26
				c7.36-0.78,11.55,1.43,12.08,6.43C745.7,357.93,745.66,359.51,745.41,361.59z"/>
			<path class="st0" d="M775.34,395.01l-8.78,0.93l2.69-22.34l-8.04,0.85l-2.69,22.34l-8.78,0.93l5.96-48.83l8.78-0.93l-2.34,19.16
				l8.04-0.85l2.34-19.16l8.78-0.93L775.34,395.01z"/>
			<path class="st0" d="M812.49,380.22c-1.03,8.37-5.1,12.42-13.34,13.29c-7.42,0.78-11.74-1.96-12.37-7.91
				c-0.16-1.48-0.06-2.52,0.3-5.56l4.22-34.92l8.78-0.93l-4.3,35.41c-0.21,1.93-0.31,2.9-0.24,3.51c0.22,2.03,1.69,3.03,4.05,2.78
				c2.63-0.28,3.7-1.83,4.24-6.32l4.43-36.24l8.85-0.94L812.49,380.22z"/>
			<path class="st0" d="M843.04,387.84l-21.67,2.29l5.96-48.83l8.78-0.93l-5.04,41.43l12.9-1.37L843.04,387.84z"/>
			<path class="st0" d="M875.03,384.45l-8.64,0.92l-0.28-7.82l-8.1,0.86l-2.15,8.08l-9.05,0.96l14.4-49.72l10.06-1.07L875.03,384.45
				z M859.86,370.76l6.07-0.64l-0.68-20.61L859.86,370.76z"/>
			<path class="st0" d="M895.25,382.31l-8.62,0.91l4.67-38.26l-0.69,0.52c-1.46,1.05-3.86,2.27-7.05,3.13l0.98-6.96
				c2.29-0.84,3.08-1.22,4.74-2.29c2.23-1.5,3.77-3.08,6.38-6.64l5.75-0.61L895.25,382.31z"/>
			<path class="st0" d="M937.33,341.95l-2.8,22.79c-0.54,4.68-1.41,7.75-2.68,9.89c-1.89,3.19-5.42,5.12-10.21,5.63
				c-7.07,0.75-11.6-1.97-12.17-7.28c-0.16-1.47-0.08-2.9,0.14-5.01l3.2-26.04c0.95-7.92,5.12-12.16,12.63-12.96
				c7-0.74,11.39,2.07,12,7.82C937.62,338.41,937.59,339.53,937.33,341.95z M925.32,335.55c-2.58,0.27-3.41,1.56-3.94,5.7
				l-3.29,26.57c-0.25,1.88-0.24,2.71-0.16,3.44c0.18,1.69,1.62,2.66,3.69,2.44c2.58-0.27,3.67-1.88,4.17-5.66l3.28-26.72
				c0.15-1.44,0.25-2.56,0.19-3.15C929.05,336.27,927.53,335.31,925.32,335.55z"/>
			<path class="st0" d="M956.74,375.8l-8.62,0.92l4.67-38.26l-0.69,0.52c-1.46,1.05-3.86,2.27-7.05,3.13l0.98-6.96
				c2.3-0.83,3.08-1.22,4.75-2.29c2.23-1.5,3.77-3.08,6.38-6.63l5.74-0.61L956.74,375.8z"/>
			<path class="st0" d="M978.65,373.48l-8.62,0.91l1.21-9.74l8.62-0.91L978.65,373.48z"/>
			<path class="st0" d="M1001.66,371.04l-8.62,0.91l4.67-38.26l-0.69,0.52c-1.46,1.05-3.86,2.27-7.05,3.13l0.98-6.95
				c2.3-0.84,3.08-1.22,4.75-2.29c2.23-1.5,3.77-3.08,6.38-6.64l5.74-0.61L1001.66,371.04z"/>
			<path class="st0" d="M1044.12,325.78l-14.51,1.54l-1.5,12.24l13.64-1.45l-0.87,7.26l-13.64,1.44l-2.67,21.79l-8.85,0.94
				l5.96-48.83l23.36-2.47L1044.12,325.78z"/>
			<path class="st0" d="M1085.63,362.15l-8.78,0.93l5.96-42.42l-12.84,43.14l-8.17,0.87l-2.75-41.49l-4.47,42.26l-8.64,0.92
				l5.96-48.83l14.31-1.51l1.44,33.57l9.84-34.76l14.11-1.5L1085.63,362.15z"/>
		</g>
	</g>
	<g>
		<g>
			<rect x="67.74" y="303.39" class="st0" width="37.49" height="108.99"/>
			<rect x="115.16" y="291.66" class="st0" width="32.24" height="94.52"/>
			<rect x="158.52" y="284.31" class="st0" width="31.67" height="101.88"/>
			<rect x="201.3" y="291.66" class="st0" width="31.66" height="94.52"/>
			<rect x="115.74" y="396.39" class="st0" width="117.23" height="44.43"/>
		</g>
		<g>
			<path class="st0" d="M315.35,350.39h37.86l3.83,25.91l40.38-4.61l-38.85-207.78h-47.02l-43.18,222.52l41.8-4.77L315.35,350.39z
				 M335.22,220.39L348.79,316h-28.4L335.22,220.39z"/>
			<polygon class="st0" points="517.29,352.92 457.02,352.92 457.02,163.91 416.01,163.91 416.01,369.57 517.29,358 			"/>
			<polygon class="st0" points="585.14,196.09 626.47,196.09 626.47,163.91 502.78,163.91 502.78,196.09 543.8,196.09 543.8,354.97 
				585.14,350.25 			"/>
			<path class="st0" d="M705.86,163.91h-47.02l-35.31,181.95l113.91-13.01L705.86,163.91z M667.68,316l14.83-95.61L696.08,316
				H667.68z"/>
			<polygon class="st0" points="864.11,163.91 822.14,163.91 801.95,311.27 780.18,163.91 736.63,163.91 769.41,329.2 
				834.37,321.78 			"/>
			<path class="st0" d="M916.46,219.45c0-9.15-1.26-18.93,7.89-25.24c5.05-3.79,11.05-4.1,13.25-4.1c10.41,0,15.15,5.68,17.04,9.78
				c3.47,6.63,2.52,16.73,2.52,17.99v89.88l41.33-4.72v-88c0-15.46-1.58-22.4-5.05-29.66c-6.63-12.94-23.67-26.19-55.85-26.19
				c-24.93,0-40.39,7.26-48.59,14.51c-14.83,13.25-13.89,35.65-13.89,40.39v103.04l41.33-4.72V219.45z"/>
			<polygon class="st0" points="1132.26,163.91 1023.71,163.91 1023.71,198.3 1085.56,198.3 1041.97,298.06 1085.21,293.12 
				1132.26,186 			"/>
		</g>
	</g>
</g>
</svg>
