<?xml version="1.0" encoding="utf-8"?>
<!-- Generator: Adobe Illustrator 28.0.0, SVG Export Plug-In . SVG Version: 6.00 Build 0)  -->
<svg version="1.1" id="Layer_4" xmlns="http://www.w3.org/2000/svg" xmlns:xlink="http://www.w3.org/1999/xlink" x="0px" y="0px"
	 viewBox="0 0 1200 600" style="enable-background:new 0 0 1200 600;" xml:space="preserve">
<style type="text/css">
	.st0{fill:#FFFFFF;}
</style>
<g>
	<g>
		<g>
			<path class="st0" d="M702.04,366.14l-0.73,6.02l-8.64,0.92l0.57-4.98c0.2-2,0.29-3.04,0.21-3.85c-0.2-1.89-1.6-2.83-3.96-2.58
				c-2.84,0.3-4.09,1.93-4.58,5.74l-3.16,25.6c-0.13,1.31-0.16,2.34-0.1,2.95c0.21,1.95,1.6,2.91,3.96,2.66
				c3.04-0.32,4.18-1.81,4.72-6.44l0.76-6.36l8.64-0.92l-0.68,5.87c-0.63,5.67-1.86,8.87-4.15,11.09c-2.11,2-5.32,3.23-9.51,3.67
				c-7.63,0.81-12.05-1.59-12.61-6.93c-0.14-1.28-0.14-2.64,0.24-5.49l2.98-24.07c1.19-9.41,5.01-13.3,14.13-14.26
				c7.36-0.78,11.55,1.43,12.08,6.43C702.33,362.48,702.29,364.06,702.04,366.14z"/>
			<path class="st0" d="M736.66,363.84l-2.69,22.34c-0.56,4.43-0.96,6.45-1.78,8.31c-1.81,4.15-5.85,6.7-11.59,7.3
				c-8.03,0.85-12.49-1.89-13.14-8.03c-0.16-1.56-0.12-3.06,0.21-5.76l2.76-22.27c0.7-5.67,1.76-8.52,3.92-10.73
				c2.1-2.07,5.23-3.42,9.28-3.85c7.83-0.83,12.57,2.01,13.2,7.95C736.97,360.39,736.86,361.97,736.66,363.84z M723.94,357.88
				c-1.62,0.17-2.84,0.92-3.54,2.08c-0.52,0.94-0.8,2.14-1.13,4.76l-2.85,23.38c-0.29,2.42-0.35,3.11-0.28,3.85
				c0.23,2.16,1.77,3.16,4.33,2.89c1.56-0.16,2.78-0.84,3.36-1.86c0.58-0.95,0.8-2.06,1.18-4.97l2.94-23.79
				c0.27-2.01,0.22-2.49,0.13-3.36C727.85,358.69,726.3,357.63,723.94,357.88z"/>
			<path class="st0" d="M763.97,396.17l-21.67,2.29l5.95-48.83l8.78-0.93L752,390.13l12.9-1.36L763.97,396.17z"/>
			<path class="st0" d="M777.75,394.71l-8.71,0.92l5.96-48.83l8.71-0.92L777.75,394.71z"/>
			<path class="st0" d="M827.67,389.43l-8.78,0.93l5.96-42.41L812,391.09l-8.17,0.86l-2.75-41.49l-4.47,42.26l-8.64,0.92l5.96-48.83
				l14.31-1.52l1.44,33.57l9.83-34.77l14.11-1.49L827.67,389.43z"/>
			<path class="st0" d="M862.89,385.7l-8.64,0.92l-0.28-7.82l-8.11,0.86l-2.15,8.08l-9.05,0.96l14.4-49.73l10.06-1.06L862.89,385.7z
				 M847.72,372.01l6.08-0.64l-0.68-20.62L847.72,372.01z"/>
			<path class="st0" d="M883.12,383.56l-8.62,0.91l4.67-38.26l-0.69,0.52c-1.46,1.05-3.86,2.27-7.04,3.13l0.98-6.96
				c2.29-0.83,3.08-1.22,4.74-2.29c2.23-1.5,3.78-3.08,6.38-6.64l5.75-0.61L883.12,383.56z"/>
			<path class="st0" d="M925.19,343.2l-2.8,22.79c-0.55,4.68-1.41,7.75-2.68,9.9c-1.9,3.18-5.42,5.12-10.21,5.62
				c-7.07,0.75-11.61-1.97-12.17-7.28c-0.16-1.47-0.09-2.9,0.14-5.01l3.2-26.04c0.95-7.92,5.12-12.16,12.63-12.96
				c7-0.74,11.39,2.07,12,7.82C925.48,339.66,925.46,340.78,925.19,343.2z M913.19,336.79c-2.58,0.27-3.41,1.56-3.94,5.71
				l-3.29,26.57c-0.25,1.89-0.24,2.7-0.16,3.44c0.18,1.69,1.62,2.66,3.68,2.45c2.58-0.28,3.67-1.88,4.17-5.66l3.28-26.72
				c0.15-1.43,0.25-2.56,0.19-3.15C916.91,337.52,915.4,336.56,913.19,336.79z"/>
			<path class="st0" d="M958.57,337.35l-0.7,5.36c-0.28,2.27-0.71,3.87-1.52,5.37c-0.49,1.02-1.25,2.22-2.25,3.37
				c-1.19,1.4-3.2,3.54-9.4,9.71c-2.09,2.09-2.88,3.06-3.85,4.43c-1.04,1.53-1.39,2.39-1.9,4.6l16.28-1.73l-0.92,7.55l-25.78,2.73
				c0.32-2.64,0.45-3.55,0.73-5.07c0.74-3.58,1.71-6.36,3.27-9.21c1.32-2.3,3.03-4.49,5.25-6.74c0.6-0.66,1.66-1.89,3.49-3.65
				c1.61-1.66,2.69-2.67,3.03-3.01c1.15-1.09,1.96-1.85,2.36-2.33c0.27-0.25,0.6-0.66,0.99-1.23c0.33-0.4,0.59-0.73,0.79-1.05
				c0.5-0.87,0.88-2.18,1.04-3.54l0.57-4.45c0.13-0.84,0.16-1.95,0.11-2.47c-0.19-1.84-1.65-2.88-3.78-2.66
				c-2.43,0.26-3.62,1.73-4,5.12l-0.71,5.96l-8.03,0.85l0.76-6.11c1.01-8.08,4.49-11.8,11.78-12.57c7.14-0.76,11.84,2.1,12.41,7.47
				C958.71,335.17,958.74,336.21,958.57,337.35z"/>
			<path class="st0" d="M971.57,374.19l-8.62,0.91l1.2-9.74l8.62-0.91L971.57,374.19z"/>
			<path class="st0" d="M1010.12,331.74l-3.12,25.43c-0.23,2.04-0.44,3.55-0.62,4.68c-0.34,2.42-0.98,4.13-2.15,5.67
				c-2.02,2.74-5.28,4.28-9.78,4.76c-7.44,0.79-11.56-1.53-12.13-6.91c-0.1-0.96-0.07-2,0.05-3.06l0.3-2.86l8.1-0.86l-0.28,2.93
				c-0.08,0.6-0.09,1.28-0.05,1.65c0.19,1.77,1.56,2.74,3.69,2.51c1.18-0.12,2.17-0.6,2.91-1.42c0.86-0.99,1.2-2.06,1.54-5.15
				l0.92-8.89c-1.76,2.35-3.87,3.54-6.67,3.84c-5.08,0.54-8.16-1.74-8.65-6.38c-0.16-1.55-0.13-3.34,0.22-5.69l1-7.4
				c0.68-4.91,1.16-6.61,2.58-8.69c1.95-2.74,5.06-4.33,9.62-4.82c7.44-0.79,11.98,2.01,12.57,7.6
				C1010.27,329.64,1010.23,330.76,1010.12,331.74z M997.93,327.82c-2.58,0.27-3.62,1.65-4.12,5.43l-1.06,8.31
				c-0.18,1.13-0.19,1.73-0.13,2.33c0.19,1.84,1.57,2.81,3.71,2.59c1.25-0.13,2.38-0.7,3.11-1.59c0.66-0.82,0.94-1.67,1.24-3.78
				l1.02-7.93c0.11-1.06,0.16-2.03,0.09-2.69C1001.58,328.48,1000.29,327.57,997.93,327.82z"/>
			<path class="st0" d="M1044.11,325.75l-14.51,1.54l-1.5,12.24l13.64-1.44l-0.87,7.26l-13.64,1.45l-2.67,21.79l-8.85,0.94
				l5.96-48.83l23.36-2.47L1044.11,325.75z"/>
			<path class="st0" d="M1085.61,362.11l-8.78,0.93l5.96-42.41l-12.84,43.14l-8.17,0.87l-2.75-41.49l-4.47,42.26l-8.64,0.92
				l5.96-48.83l14.31-1.52l1.44,33.57l9.84-34.77l14.11-1.5L1085.61,362.11z"/>
		</g>
	</g>
	<g>
		<g>
			<rect x="67.74" y="303.39" class="st0" width="37.49" height="108.99"/>
			<rect x="115.16" y="291.66" class="st0" width="32.24" height="94.52"/>
			<rect x="158.52" y="284.31" class="st0" width="31.67" height="101.88"/>
			<rect x="201.3" y="291.66" class="st0" width="31.66" height="94.52"/>
			<rect x="115.74" y="396.39" class="st0" width="117.23" height="44.43"/>
		</g>
		<g>
			<path class="st0" d="M315.35,350.39h37.86l3.83,25.91l40.38-4.61l-38.85-207.78h-47.02l-43.18,222.52l41.8-4.77L315.35,350.39z
				 M335.22,220.39L348.79,316h-28.4L335.22,220.39z"/>
			<polygon class="st0" points="517.29,352.92 457.02,352.92 457.02,163.91 416.01,163.91 416.01,369.57 517.29,358 			"/>
			<polygon class="st0" points="585.14,196.09 626.47,196.09 626.47,163.91 502.78,163.91 502.78,196.09 543.8,196.09 543.8,354.97 
				585.14,350.25 			"/>
			<path class="st0" d="M705.86,163.91h-47.02l-35.31,181.95l113.91-13.01L705.86,163.91z M667.68,316l14.83-95.61L696.08,316
				H667.68z"/>
			<polygon class="st0" points="864.11,163.91 822.14,163.91 801.95,311.27 780.18,163.91 736.63,163.91 769.41,329.2 
				834.37,321.78 			"/>
			<path class="st0" d="M916.46,219.45c0-9.15-1.26-18.93,7.89-25.24c5.05-3.79,11.05-4.1,13.25-4.1c10.41,0,15.15,5.68,17.04,9.78
				c3.47,6.63,2.52,16.73,2.52,17.99v89.88l41.33-4.72v-88c0-15.46-1.58-22.4-5.05-29.66c-6.63-12.94-23.67-26.19-55.85-26.19
				c-24.93,0-40.39,7.26-48.59,14.51c-14.83,13.25-13.89,35.65-13.89,40.39v103.04l41.33-4.72V219.45z"/>
			<polygon class="st0" points="1132.26,163.91 1023.71,163.91 1023.71,198.3 1085.56,198.3 1041.97,298.06 1085.21,293.12 
				1132.26,186 			"/>
		</g>
	</g>
</g>
</svg>
